# xmcd
#
# Track frame offsets:
#	150
#	17105
#	37456
#	56554
#	72468
#	89943
#	115692
#	133816
#	150773
#
# Disc length: 2332 seconds
#
# Revision: 2
# Processed by: cddbd v1.5.2PL0 Copyright (c) Steve Scherf et al.
# Submitted via: EZCDAudioConverter 8.0.2.1
#
DISCID=80091a09
DTITLE=Thanh Ngọc - Vol 02. Tình Yêu Diệu Kỳ
DYEAR=2007
DGENRE=World Pop
TTITLE0=Tình yêu đầu tiên (First love)
TTITLE1=Đôi cánh ước mơ
TTITLE2=Sẽ quên
TTITLE3=Ngơ ngác
TTITLE4=Người đã trao em tình yêu (Remix) 
TTITLE5=Dạ khúc mùa đông
TTITLE6=Mưa đêm
TTITLE7=Tình yêu diệu kỳ
TTITLE8=Vỗ về giấc mơ (Remix)
EXTD=
EXTT0=
EXTT1=
EXTT2=
EXTT3=
EXTT4=
EXTT5=
EXTT6=
EXTT7=
EXTT8=
PLAYORDER=
